<svg width="29" height="29" viewBox="0 0 29 29" fill="none" xmlns="http://www.w3.org/2000/svg">
<g clip-path="url(#clip0_12002_3277)">
<circle cx="15.1045" cy="15.1045" r="12.6875" fill="white"/>
<mask id="mask0_12002_3277" style="mask-type:luminance" maskUnits="userSpaceOnUse" x="0" y="0" width="29" height="29">
<path d="M29 0H0V29H29V0Z" fill="white"/>
</mask>
<g mask="url(#mask0_12002_3277)">
<path d="M0 14.5C0 22.5081 6.49187 29 14.5 29C22.5081 29 29 22.5081 29 14.5C29 6.49187 22.5081 0 14.5 0C6.49187 0 0 6.49187 0 14.5ZM16.9469 9.66063V12.1006C16.9469 12.2651 17.1409 12.3524 17.2641 12.2434C18.2156 11.4097 19.6838 11.0563 21.0431 11.3372C22.3481 11.6091 23.6894 12.6875 24.3237 13.9563C25.5291 16.4122 24.8041 19.43 22.6744 20.88C20.9163 22.0763 18.6597 21.9947 17.2188 20.6897C17.0774 20.5661 16.8563 20.6664 16.8563 20.8541V20.9706C16.8563 21.301 16.5885 21.5688 16.2581 21.5688H15.6781C15.0274 21.5688 14.5 21.0413 14.5 20.3906V14.1828V8.02032C14.5 7.34463 15.0477 6.79688 15.7234 6.79688C16.3991 6.79688 16.9469 7.34463 16.9469 8.02032V9.66063ZM12.5969 8.23782C12.5969 9.08905 12.2009 9.89184 11.5254 10.4099L8.31938 12.8688L4.28934 15.9446C4.14708 16.0531 3.944 16.0273 3.83344 15.8866C3.71532 15.7428 3.72614 15.5328 3.85839 15.4018L4.51312 14.7538C5.31613 13.9507 9.64861 9.72049 11.6114 7.82118C12.2288 7.2237 12.5969 7.37862 12.5969 8.23782ZM11.3644 15.1888C11.4668 15.917 11.1165 16.3763 10.399 16.5375C8.52036 16.9598 4.82762 17.7625 4.73969 17.7625C4.72156 17.7625 4.7125 17.6266 4.7125 17.4634C4.7125 17.2862 4.81416 17.1246 4.97396 17.048L7.86625 15.66C9.59719 14.8263 11.0562 14.1375 11.1106 14.1375C11.165 14.1375 11.2738 14.5997 11.3644 15.1888ZM7.88438 19.1219C9.50656 19.1672 11.2284 19.2397 11.7178 19.2669C12.2119 19.2974 12.5969 19.7071 12.5969 20.202V20.445C12.5969 21.0613 12.5697 21.5688 12.5334 21.5688C12.3964 21.5768 5.70296 19.9727 4.17681 19.5725C3.96779 19.5176 3.84493 19.3643 3.97844 19.1944C4.1325 18.995 4.22313 18.9678 4.54938 18.995C4.76688 19.0131 6.26219 19.0675 7.88438 19.1219Z" fill="black"/>
<path d="M18.9674 13.5843C18.1517 13.7927 17.3633 14.554 17.0733 15.424C16.8649 16.0674 16.9283 17.2908 17.2092 17.8708C17.4811 18.4327 17.9886 18.9402 18.5414 19.2121C19.2121 19.5383 20.1636 19.5202 20.8614 19.1849C21.4505 18.8949 21.9127 18.3965 22.2208 17.7077C22.5199 17.0462 22.5017 15.9043 22.1936 15.2246C21.7042 14.1643 20.9067 13.5933 19.8464 13.539C19.5202 13.5208 19.1305 13.548 18.9674 13.5843Z" fill="black"/>
</g>
</g>
<defs>
<clipPath id="clip0_12002_3277">
<rect width="29" height="29" fill="white"/>
</clipPath>
</defs>
</svg>
