<svg xmlns="http://www.w3.org/2000/svg" xmlns:xlink="http://www.w3.org/1999/xlink" width="200" zoomAndPan="magnify" viewBox="0 0 150 149.999998" height="200" preserveAspectRatio="xMidYMid meet" version="1.0"><defs><clipPath id="4d8d7ce0c9"><path d="M 12 0 L 138.46875 0 L 138.46875 150 L 12 150 Z M 12 0 " clip-rule="nonzero"/></clipPath><clipPath id="547af830da"><path d="M 42 54 L 138.46875 54 L 138.46875 150 L 42 150 Z M 42 54 " clip-rule="nonzero"/></clipPath></defs><g clip-path="url(#4d8d7ce0c9)"><path fill="#db9b32" d="M 95.0625 54.804688 C 94.015625 53.570312 93.171875 52.144531 92.609375 50.453125 C 92.046875 48.777344 91.648438 46.554688 92.046875 44.792969 C 92.355469 43.429688 93.125 42.25 93.277344 40.789062 C 93.59375 37.796875 92.246094 35.011719 89.875 33.203125 C 87.886719 31.6875 85.695312 31.125 83.472656 30.136719 C 85.246094 31.148438 87.359375 32.285156 87.855469 34.558594 C 88.160156 35.953125 87.589844 37.378906 86.574219 38.300781 C 84.917969 39.808594 83.75 39.902344 81.613281 39.667969 C 80.191406 39.511719 79.097656 38.730469 78.425781 37.484375 C 77.847656 36.40625 77.210938 35.042969 77.003906 33.839844 C 76.71875 32.15625 76.777344 30.4375 76.410156 28.761719 C 74.855469 21.695312 66.507812 19.046875 60.132812 18.816406 C 59.21875 18.785156 58.304688 18.804688 57.390625 18.859375 C 56.5 18.910156 55.578125 19.316406 54.6875 19.109375 C 55.824219 19.804688 57.003906 19.554688 58.226562 19.964844 C 59.652344 20.441406 61.03125 21.109375 62.324219 21.871094 C 63.972656 22.839844 65.660156 24.457031 66.6875 26.078125 C 67.738281 27.726562 65.863281 29.679688 64.347656 30.34375 C 61.453125 31.613281 57.847656 30.640625 54.9375 29.925781 C 49.75 28.652344 44.632812 26 41.460938 21.625 C 38.628906 17.726562 36.386719 12.546875 36.710938 7.644531 C 36.871094 5.246094 37.648438 2.019531 39.023438 0.00390625 C 37.222656 1.976562 35.167969 3.6875 33.191406 5.476562 C 25.507812 12.417969 14.8125 20.601562 15.765625 32.308594 C 16.125 36.679688 18.515625 39.929688 21.894531 42.511719 C 24.445312 44.460938 27.109375 47.171875 27.65625 50.460938 C 28.230469 53.941406 25.722656 56.460938 22.292969 56.449219 C 20.5625 56.445312 18.152344 55.910156 16.675781 54.972656 C 15.847656 54.449219 12.984375 51.988281 13.316406 50.808594 C 12.199219 54.769531 11.777344 59.53125 14.273438 63.082031 C 17.019531 66.988281 21.707031 66.292969 25.875 66.15625 C 29.710938 66.027344 33.636719 66.097656 36.265625 69.378906 C 39.667969 73.621094 36.910156 77.425781 33.679688 80.613281 C 30.765625 83.492188 27.90625 86.480469 26.335938 90.332031 C 24.070312 95.890625 26.089844 102.148438 29.203125 106.851562 C 34.101562 114.253906 40.59375 120.910156 48.570312 124.9375 C 56.644531 139.863281 72.453125 150.007812 90.636719 150.007812 C 117.019531 150.007812 138.410156 128.648438 138.410156 102.300781 C 138.410156 77.445312 119.371094 57.035156 95.0625 54.804688 " fill-opacity="1" fill-rule="nonzero"/></g><path fill="#db9b32" d="M 52.253906 73.894531 C 51.429688 73.792969 50.566406 73.804688 49.714844 73.835938 C 47.238281 73.917969 44.460938 74.328125 42.832031 72.011719 C 41.351562 69.90625 41.601562 67.082031 42.261719 64.734375 C 42.066406 65.433594 43.765625 66.890625 44.253906 67.203125 C 45.132812 67.757812 46.5625 68.078125 47.585938 68.078125 C 49.621094 68.085938 51.109375 66.589844 50.769531 64.527344 C 50.445312 62.574219 48.867188 60.96875 47.351562 59.8125 C 45.347656 58.28125 43.929688 56.351562 43.71875 53.757812 C 43.152344 46.816406 49.496094 41.960938 54.050781 37.84375 C 55.226562 36.785156 56.445312 35.769531 57.511719 34.601562 C 56.695312 35.792969 56.234375 37.707031 56.140625 39.132812 C 55.949219 42.039062 57.277344 45.109375 58.957031 47.425781 C 60.839844 50.015625 63.875 51.59375 66.949219 52.347656 C 68.675781 52.769531 70.816406 53.347656 72.53125 52.59375 C 73.429688 52.203125 74.542969 51.042969 73.921875 50.0625 C 73.308594 49.105469 72.308594 48.144531 71.332031 47.570312 C 70.5625 47.117188 69.746094 46.722656 68.902344 46.4375 C 68.175781 46.195312 67.476562 46.34375 66.800781 45.929688 C 67.328125 46.054688 67.875 45.8125 68.40625 45.78125 C 68.945312 45.75 69.488281 45.738281 70.03125 45.757812 C 73.8125 45.894531 78.761719 47.464844 79.683594 51.65625 C 79.902344 52.648438 79.867188 53.667969 80.035156 54.667969 C 80.09375 55.003906 80.210938 55.359375 80.351562 55.710938 C 82.316406 55.28125 84.328125 54.96875 86.375 54.789062 C 85.96875 53.644531 84.839844 53.023438 83.875 52.472656 C 85.191406 53.058594 86.492188 53.390625 87.671875 54.289062 C 87.824219 54.40625 87.96875 54.535156 88.105469 54.664062 C 88.945312 54.621094 89.789062 54.597656 90.636719 54.597656 C 92.128906 54.597656 93.605469 54.671875 95.0625 54.804688 C 94.019531 53.570312 93.171875 52.144531 92.609375 50.453125 C 92.046875 48.777344 91.648438 46.554688 92.046875 44.792969 C 92.355469 43.429688 93.125 42.25 93.277344 40.789062 C 93.59375 37.796875 92.246094 35.011719 89.875 33.203125 C 87.886719 31.6875 85.695312 31.125 83.472656 30.136719 C 85.246094 31.148438 87.359375 32.285156 87.855469 34.558594 C 88.160156 35.953125 87.589844 37.378906 86.574219 38.300781 C 84.917969 39.808594 83.75 39.902344 81.613281 39.667969 C 80.191406 39.511719 79.097656 38.730469 78.425781 37.484375 C 77.847656 36.40625 77.210938 35.042969 77.003906 33.839844 C 76.71875 32.15625 76.777344 30.4375 76.410156 28.761719 C 74.855469 21.695312 66.507812 19.046875 60.132812 18.816406 C 59.21875 18.785156 58.304688 18.804688 57.390625 18.859375 C 56.5 18.910156 55.578125 19.316406 54.6875 19.109375 C 55.824219 19.804688 57.003906 19.554688 58.226562 19.964844 C 59.652344 20.441406 61.03125 21.109375 62.324219 21.871094 C 63.972656 22.839844 65.660156 24.457031 66.6875 26.078125 C 67.738281 27.726562 65.863281 29.679688 64.347656 30.34375 C 61.453125 31.613281 57.847656 30.640625 54.9375 29.925781 C 49.75 28.652344 44.632812 26 41.460938 21.625 C 38.628906 17.726562 36.386719 12.546875 36.710938 7.644531 C 36.871094 5.246094 37.648438 2.019531 39.023438 0.00390625 C 37.222656 1.976562 35.167969 3.6875 33.191406 5.476562 C 25.507812 12.417969 14.8125 20.601562 15.765625 32.308594 C 16.125 36.679688 18.515625 39.929688 21.894531 42.511719 C 24.445312 44.460938 27.109375 47.171875 27.65625 50.460938 C 28.230469 53.941406 25.722656 56.460938 22.292969 56.449219 C 20.5625 56.445312 18.152344 55.910156 16.675781 54.972656 C 15.847656 54.449219 12.984375 51.988281 13.316406 50.808594 C 12.199219 54.769531 11.777344 59.53125 14.273438 63.082031 C 17.019531 66.988281 21.707031 66.292969 25.875 66.15625 C 29.710938 66.027344 33.636719 66.097656 36.265625 69.378906 C 39.667969 73.621094 36.910156 77.425781 33.679688 80.613281 C 30.765625 83.492188 27.90625 86.480469 26.335938 90.332031 C 24.070312 95.890625 26.089844 102.148438 29.203125 106.851562 C 34.101562 114.253906 40.59375 120.910156 48.570312 124.9375 C 44.929688 118.203125 42.859375 110.496094 42.859375 102.300781 C 42.859375 91.660156 46.351562 81.832031 52.253906 73.894531 " fill-opacity="1" fill-rule="nonzero"/><path fill="#d86c33" d="M 79.683594 51.65625 C 78.761719 47.464844 73.8125 45.894531 70.03125 45.757812 C 69.488281 45.738281 68.945312 45.75 68.40625 45.78125 C 67.875 45.8125 67.328125 46.054688 66.800781 45.929688 C 67.476562 46.34375 68.175781 46.195312 68.902344 46.4375 C 69.746094 46.722656 70.5625 47.117188 71.332031 47.570312 C 72.308594 48.144531 73.308594 49.105469 73.921875 50.0625 C 74.542969 51.042969 73.429688 52.203125 72.53125 52.59375 C 70.816406 53.347656 68.675781 52.769531 66.949219 52.347656 C 63.875 51.59375 60.839844 50.015625 58.957031 47.425781 C 57.277344 45.109375 55.949219 42.039062 56.140625 39.132812 C 56.234375 37.707031 56.695312 35.792969 57.511719 34.601562 C 56.445312 35.769531 55.226562 36.785156 54.050781 37.84375 C 49.496094 41.960938 43.152344 46.816406 43.71875 53.757812 C 43.929688 56.351562 45.347656 58.28125 47.351562 59.8125 C 48.867188 60.96875 50.445312 62.574219 50.769531 64.527344 C 51.109375 66.589844 49.621094 68.085938 47.585938 68.078125 C 46.5625 68.078125 45.132812 67.757812 44.253906 67.203125 C 43.765625 66.890625 42.066406 65.433594 42.261719 64.734375 C 41.601562 67.082031 41.351562 69.90625 42.832031 72.011719 C 44.460938 74.328125 47.238281 73.917969 49.714844 73.835938 C 50.566406 73.804688 51.429688 73.792969 52.253906 73.894531 C 59.003906 64.816406 68.910156 58.21875 80.351562 55.710938 C 80.210938 55.359375 80.09375 55.003906 80.035156 54.667969 C 79.867188 53.667969 79.902344 52.648438 79.683594 51.65625 " fill-opacity="1" fill-rule="nonzero"/><path fill="#d86c33" d="M 83.875 52.472656 C 84.839844 53.023438 85.96875 53.644531 86.375 54.789062 C 86.949219 54.738281 87.527344 54.695312 88.105469 54.664062 C 87.96875 54.535156 87.824219 54.40625 87.671875 54.289062 C 86.492188 53.390625 85.191406 53.058594 83.875 52.472656 " fill-opacity="1" fill-rule="nonzero"/><g clip-path="url(#547af830da)"><path fill="#921022" d="M 90.636719 146.464844 C 66.210938 146.464844 46.410156 126.691406 46.410156 102.300781 C 46.410156 77.914062 66.210938 58.140625 90.636719 58.140625 C 115.0625 58.140625 134.863281 77.914062 134.863281 102.300781 C 134.863281 126.691406 115.0625 146.464844 90.636719 146.464844 Z M 95.0625 54.804688 C 93.605469 54.671875 92.128906 54.597656 90.636719 54.597656 C 89.789062 54.597656 88.945312 54.621094 88.105469 54.664062 C 87.527344 54.695312 86.949219 54.738281 86.375 54.789062 C 84.328125 54.96875 82.316406 55.28125 80.351562 55.710938 C 68.910156 58.21875 59.003906 64.816406 52.253906 73.894531 C 46.351562 81.832031 42.859375 91.660156 42.859375 102.300781 C 42.859375 110.496094 44.929688 118.203125 48.570312 124.9375 C 56.644531 139.863281 72.453125 150.007812 90.636719 150.007812 C 117.019531 150.007812 138.410156 128.648438 138.410156 102.300781 C 138.410156 77.445312 119.371094 57.035156 95.0625 54.804688 " fill-opacity="1" fill-rule="nonzero"/></g><path fill="#d41a36" d="M 90.636719 139.308594 C 90.128906 139.308594 89.621094 139.300781 89.121094 139.277344 C 69.351562 138.484375 53.574219 122.238281 53.574219 102.300781 C 53.574219 82.367188 69.351562 66.121094 89.121094 65.328125 C 89.621094 65.304688 90.128906 65.296875 90.636719 65.296875 C 111.109375 65.296875 127.699219 81.859375 127.699219 102.300781 C 127.699219 122.746094 111.109375 139.308594 90.636719 139.308594 Z M 90.636719 58.140625 C 66.210938 58.140625 46.410156 77.914062 46.410156 102.300781 C 46.410156 126.691406 66.210938 146.464844 90.636719 146.464844 C 115.0625 146.464844 134.863281 126.691406 134.863281 102.300781 C 134.863281 77.914062 115.0625 58.140625 90.636719 58.140625 " fill-opacity="1" fill-rule="nonzero"/><path fill="#d1d0d0" d="M 90.636719 65.296875 C 90.128906 65.296875 89.621094 65.304688 89.121094 65.328125 C 97.566406 65.667969 105.273438 68.835938 111.34375 73.898438 L 111.691406 74.152344 L 111.675781 74.171875 C 114.21875 76.34375 116.460938 78.855469 118.335938 81.636719 L 118.832031 81.277344 L 119.375 82.023438 L 118.847656 82.40625 C 120.605469 85.152344 122.007812 88.144531 122.996094 91.320312 L 123.957031 91.007812 L 124.242188 91.882812 L 123.253906 92.207031 C 124.125 95.273438 124.609375 98.503906 124.648438 101.839844 L 125.824219 101.839844 L 125.824219 102.765625 L 124.648438 102.765625 C 124.609375 106.101562 124.125 109.332031 123.253906 112.398438 L 124.242188 112.722656 L 123.957031 113.597656 L 122.996094 113.285156 C 122.007812 116.460938 120.605469 119.453125 118.847656 122.199219 L 119.375 122.582031 L 118.828125 123.328125 L 118.335938 122.96875 C 116.460938 125.75 114.21875 128.261719 111.675781 130.433594 L 111.691406 130.453125 L 111.339844 130.710938 C 105.273438 135.773438 97.5625 138.9375 89.121094 139.277344 C 89.621094 139.300781 90.128906 139.308594 90.636719 139.308594 C 111.109375 139.308594 127.699219 122.746094 127.699219 102.300781 C 127.699219 81.859375 111.109375 65.296875 90.636719 65.296875 " fill-opacity="1" fill-rule="nonzero"/><path fill="#ffffff" d="M 106.546875 82.0625 L 93.101562 100.535156 C 93.460938 101.035156 93.671875 101.644531 93.671875 102.300781 C 93.671875 103.285156 93.203125 104.15625 92.480469 104.710938 L 99.21875 124.207031 C 99.390625 124.707031 99.125 125.25 98.625 125.421875 C 98.125 125.59375 97.582031 125.328125 97.410156 124.828125 L 90.671875 105.335938 C 90.660156 105.335938 90.648438 105.335938 90.636719 105.335938 C 89.035156 105.335938 87.730469 104.101562 87.609375 102.535156 L 72.710938 99.496094 C 72.585938 99.472656 72.503906 99.351562 72.53125 99.222656 C 72.554688 99.105469 72.667969 99.027344 72.789062 99.042969 L 87.855469 101.085938 C 88.324219 100.015625 89.390625 99.269531 90.636719 99.269531 C 90.980469 99.269531 91.308594 99.328125 91.617188 99.433594 L 105.433594 81.238281 C 105.664062 80.933594 106.101562 80.875 106.40625 81.105469 C 106.707031 81.332031 106.769531 81.761719 106.546875 82.0625 Z M 101.070312 135.859375 L 99.601562 131.34375 L 100.480469 131.058594 L 101.949219 135.574219 Z M 91.097656 137.4375 L 90.171875 137.4375 L 90.175781 132.6875 L 91.097656 132.6875 Z M 80.203125 135.859375 L 79.324219 135.574219 L 80.792969 131.058594 L 81.671875 131.34375 Z M 70.328125 130.996094 L 69.582031 130.453125 L 72.375 126.613281 L 73.125 127.15625 Z M 62.441406 123.328125 L 61.898438 122.582031 L 65.746094 119.789062 L 66.289062 120.535156 Z M 57.316406 113.597656 L 57.027344 112.71875 L 61.550781 111.253906 L 61.835938 112.132812 Z M 55.449219 101.839844 L 60.207031 101.839844 L 60.207031 102.765625 L 55.449219 102.765625 Z M 57.316406 91.007812 L 61.835938 92.472656 L 61.550781 93.351562 L 57.027344 91.882812 Z M 62.441406 81.277344 L 66.289062 84.070312 L 65.746094 84.816406 L 61.898438 82.023438 Z M 70.328125 73.609375 L 73.125 77.449219 L 72.375 77.992188 L 69.582031 74.152344 Z M 80.203125 68.746094 L 81.671875 73.261719 L 80.792969 73.546875 L 79.324219 69.03125 Z M 90.171875 67.167969 L 91.097656 67.167969 L 91.097656 71.917969 L 90.171875 71.917969 Z M 101.070312 68.746094 L 101.949219 69.03125 L 100.476562 73.546875 L 99.597656 73.261719 Z M 110.945312 130.996094 L 108.148438 127.15625 L 108.898438 126.613281 L 111.675781 130.433594 C 114.21875 128.261719 116.460938 125.75 118.335938 122.96875 L 114.984375 120.535156 L 115.527344 119.789062 L 118.847656 122.199219 C 120.605469 119.453125 122.007812 116.460938 122.996094 113.285156 L 119.433594 112.128906 L 119.722656 111.253906 L 123.253906 112.398438 C 124.125 109.332031 124.609375 106.101562 124.648438 102.765625 L 121.066406 102.761719 L 121.066406 101.839844 L 124.648438 101.839844 C 124.609375 98.503906 124.125 95.273438 123.253906 92.207031 L 119.71875 93.351562 L 119.433594 92.472656 L 122.996094 91.320312 C 122.007812 88.144531 120.605469 85.152344 118.847656 82.40625 L 115.527344 84.816406 L 114.984375 84.066406 L 118.335938 81.636719 C 116.460938 78.855469 114.21875 76.34375 111.675781 74.171875 L 108.898438 77.992188 L 108.148438 77.449219 L 110.945312 73.609375 L 111.34375 73.898438 C 105.273438 68.835938 97.566406 65.667969 89.121094 65.328125 C 69.351562 66.121094 53.574219 82.367188 53.574219 102.300781 C 53.574219 122.238281 69.351562 138.484375 89.121094 139.277344 C 97.5625 138.9375 105.273438 135.773438 111.339844 130.710938 L 110.945312 130.996094 " fill-opacity="1" fill-rule="nonzero"/><path fill="#1d5257" d="M 106.40625 81.105469 C 106.101562 80.875 105.664062 80.933594 105.433594 81.238281 L 91.617188 99.433594 C 91.308594 99.328125 90.980469 99.269531 90.636719 99.269531 C 89.390625 99.269531 88.324219 100.015625 87.855469 101.085938 L 88.832031 101.21875 C 89.203125 100.605469 89.867188 100.195312 90.636719 100.195312 C 91.804688 100.195312 92.75 101.136719 92.75 102.300781 C 92.75 103.46875 91.804688 104.414062 90.636719 104.414062 C 89.617188 104.414062 88.765625 103.691406 88.566406 102.730469 L 87.609375 102.535156 C 87.730469 104.101562 89.035156 105.335938 90.636719 105.335938 C 90.648438 105.335938 90.660156 105.335938 90.671875 105.335938 L 97.410156 124.828125 C 97.582031 125.328125 98.125 125.59375 98.625 125.421875 C 99.125 125.25 99.390625 124.707031 99.21875 124.207031 L 92.480469 104.710938 C 93.203125 104.15625 93.671875 103.285156 93.671875 102.300781 C 93.671875 101.644531 93.460938 101.035156 93.101562 100.535156 L 106.546875 82.0625 C 106.769531 81.761719 106.707031 81.332031 106.40625 81.105469 " fill-opacity="1" fill-rule="nonzero"/><path fill="#d41a36" d="M 90.636719 101.519531 C 91.070312 101.519531 91.421875 101.867188 91.421875 102.300781 C 91.421875 102.738281 91.070312 103.085938 90.636719 103.085938 C 90.203125 103.085938 89.851562 102.738281 89.851562 102.300781 C 89.851562 101.867188 90.203125 101.519531 90.636719 101.519531 Z M 90.636719 104.414062 C 91.804688 104.414062 92.75 103.46875 92.75 102.300781 C 92.75 101.136719 91.804688 100.195312 90.636719 100.195312 C 89.867188 100.195312 89.203125 100.605469 88.832031 101.21875 L 87.855469 101.085938 L 72.789062 99.042969 C 72.667969 99.027344 72.554688 99.105469 72.53125 99.222656 C 72.503906 99.351562 72.585938 99.472656 72.710938 99.496094 L 87.609375 102.535156 L 88.566406 102.730469 C 88.765625 103.691406 89.617188 104.414062 90.636719 104.414062 " fill-opacity="1" fill-rule="nonzero"/><path fill="#ffffff" d="M 90.636719 103.085938 C 91.070312 103.085938 91.421875 102.738281 91.421875 102.300781 C 91.421875 101.867188 91.070312 101.519531 90.636719 101.519531 C 90.203125 101.519531 89.851562 101.867188 89.851562 102.300781 C 89.851562 102.738281 90.203125 103.085938 90.636719 103.085938 " fill-opacity="1" fill-rule="nonzero"/><path fill="#d41a36" d="M 91.097656 67.167969 L 90.171875 67.167969 L 90.171875 71.917969 L 91.097656 71.917969 L 91.097656 67.167969 " fill-opacity="1" fill-rule="nonzero"/><path fill="#d41a36" d="M 81.671875 73.261719 L 80.203125 68.746094 L 79.324219 69.03125 L 80.792969 73.546875 L 81.671875 73.261719 " fill-opacity="1" fill-rule="nonzero"/><path fill="#d41a36" d="M 73.125 77.449219 L 70.328125 73.609375 L 69.582031 74.152344 L 72.375 77.992188 L 73.125 77.449219 " fill-opacity="1" fill-rule="nonzero"/><path fill="#d41a36" d="M 66.289062 84.070312 L 62.441406 81.277344 L 61.898438 82.023438 L 65.746094 84.816406 L 66.289062 84.070312 " fill-opacity="1" fill-rule="nonzero"/><path fill="#d41a36" d="M 61.835938 92.472656 L 57.316406 91.007812 L 57.027344 91.882812 L 61.550781 93.351562 L 61.835938 92.472656 " fill-opacity="1" fill-rule="nonzero"/><path fill="#d41a36" d="M 60.207031 101.839844 L 55.449219 101.839844 L 55.449219 102.765625 L 60.207031 102.765625 L 60.207031 101.839844 " fill-opacity="1" fill-rule="nonzero"/><path fill="#d41a36" d="M 57.027344 112.71875 L 57.316406 113.597656 L 61.835938 112.132812 L 61.550781 111.253906 L 57.027344 112.71875 " fill-opacity="1" fill-rule="nonzero"/><path fill="#d41a36" d="M 61.898438 122.582031 L 62.441406 123.328125 L 66.289062 120.535156 L 65.746094 119.789062 L 61.898438 122.582031 " fill-opacity="1" fill-rule="nonzero"/><path fill="#d41a36" d="M 69.582031 130.453125 L 70.328125 130.996094 L 73.125 127.15625 L 72.375 126.613281 L 69.582031 130.453125 " fill-opacity="1" fill-rule="nonzero"/><path fill="#d41a36" d="M 79.324219 135.574219 L 80.203125 135.859375 L 81.671875 131.34375 L 80.792969 131.058594 L 79.324219 135.574219 " fill-opacity="1" fill-rule="nonzero"/><path fill="#d41a36" d="M 90.171875 137.4375 L 91.097656 137.4375 L 91.097656 132.6875 L 90.175781 132.6875 L 90.171875 137.4375 " fill-opacity="1" fill-rule="nonzero"/><path fill="#d41a36" d="M 99.601562 131.34375 L 101.070312 135.859375 L 101.949219 135.574219 L 100.480469 131.058594 L 99.601562 131.34375 " fill-opacity="1" fill-rule="nonzero"/><path fill="#d41a36" d="M 108.148438 127.15625 L 110.945312 130.996094 L 111.339844 130.710938 L 111.691406 130.453125 L 111.675781 130.433594 L 108.898438 126.613281 L 108.148438 127.15625 " fill-opacity="1" fill-rule="nonzero"/><path fill="#d41a36" d="M 114.984375 120.535156 L 118.335938 122.96875 L 118.828125 123.328125 L 119.375 122.582031 L 118.847656 122.199219 L 115.527344 119.789062 L 114.984375 120.535156 " fill-opacity="1" fill-rule="nonzero"/><path fill="#d41a36" d="M 119.433594 112.128906 L 122.996094 113.285156 L 123.957031 113.597656 L 124.242188 112.722656 L 123.253906 112.398438 L 119.722656 111.253906 L 119.433594 112.128906 " fill-opacity="1" fill-rule="nonzero"/><path fill="#d41a36" d="M 121.066406 102.761719 L 124.648438 102.765625 L 125.824219 102.765625 L 125.824219 101.839844 L 121.066406 101.839844 L 121.066406 102.761719 " fill-opacity="1" fill-rule="nonzero"/><path fill="#d41a36" d="M 119.71875 93.351562 L 123.253906 92.207031 L 124.242188 91.882812 L 123.957031 91.007812 L 122.996094 91.320312 L 119.433594 92.472656 L 119.71875 93.351562 " fill-opacity="1" fill-rule="nonzero"/><path fill="#d41a36" d="M 115.527344 84.816406 L 118.847656 82.40625 L 119.375 82.023438 L 118.832031 81.277344 L 118.335938 81.636719 L 114.984375 84.066406 L 115.527344 84.816406 " fill-opacity="1" fill-rule="nonzero"/><path fill="#d41a36" d="M 108.148438 77.449219 L 108.898438 77.992188 L 111.675781 74.171875 L 111.691406 74.152344 L 111.34375 73.898438 L 110.945312 73.609375 L 108.148438 77.449219 " fill-opacity="1" fill-rule="nonzero"/><path fill="#d41a36" d="M 101.949219 69.03125 L 101.070312 68.746094 L 99.597656 73.261719 L 100.476562 73.546875 L 101.949219 69.03125 " fill-opacity="1" fill-rule="nonzero"/></svg>