<svg width="15" height="8" viewBox="0 0 15 8" fill="none" xmlns="http://www.w3.org/2000/svg">
<path id="Vector" d="M7.03011 2.33194C6.52161 2.33194 6.03394 2.49573 5.67437 2.78728C5.31481 3.07883 5.11281 3.47426 5.11281 3.88657C5.11281 4.29888 5.31481 4.69431 5.67437 4.98586C6.03394 5.27741 6.52161 5.4412 7.03011 5.4412C7.53861 5.4412 8.02628 5.27741 8.38585 4.98586C8.74541 4.69431 8.94741 4.29888 8.94741 3.88657C8.94741 3.47426 8.74541 3.07883 8.38585 2.78728C8.02628 2.49573 7.53861 2.33194 7.03011 2.33194ZM7.03011 6.47762C6.18261 6.47762 5.36982 6.20463 4.77055 5.71872C4.17127 5.2328 3.8346 4.57376 3.8346 3.88657C3.8346 3.19938 4.17127 2.54034 4.77055 2.05442C5.36982 1.56851 6.18261 1.29552 7.03011 1.29552C7.87761 1.29552 8.6904 1.56851 9.28967 2.05442C9.88894 2.54034 10.2256 3.19938 10.2256 3.88657C10.2256 4.57376 9.88894 5.2328 9.28967 5.71872C8.6904 6.20463 7.87761 6.47762 7.03011 6.47762ZM7.03011 0C3.8346 0 1.10564 1.61163 0 3.88657C1.10564 6.16151 3.8346 7.77314 7.03011 7.77314C10.2256 7.77314 12.9546 6.16151 14.0602 3.88657C12.9546 1.61163 10.2256 0 7.03011 0Z" fill="#777777"/>
</svg>
