<svg xmlns="http://www.w3.org/2000/svg" xmlns:xlink="http://www.w3.org/1999/xlink" width="200" zoomAndPan="magnify" viewBox="0 0 150 149.999998" height="200" preserveAspectRatio="xMidYMid meet" version="1.0"><defs><clipPath id="c1336ba703"><path d="M 12.46875 44 L 137.71875 44 L 137.71875 150 L 12.46875 150 Z M 12.46875 44 " clip-rule="nonzero"/></clipPath><clipPath id="05c75a0b5e"><path d="M 20 87 L 135.367188 87 L 135.367188 125 L 20 125 Z M 20 87 " clip-rule="nonzero"/></clipPath><clipPath id="078f5c65ef"><path d="M 15.367188 79.488281 L 133 79.488281 L 133 125.988281 L 15.367188 125.988281 Z M 15.367188 79.488281 " clip-rule="nonzero"/></clipPath></defs><g clip-path="url(#c1336ba703)"><path fill="#2ec099" d="M 57.808594 44.335938 C 57.808594 44.335938 7.828125 72.171875 12.820312 109.898438 C 16.960938 141.28125 46.105469 150.308594 76.5625 150.121094 C 106.90625 149.933594 132.96875 141.925781 137.332031 111.824219 C 142.941406 73.035156 93.511719 44.382812 93.511719 44.382812 L 57.808594 44.335938 " fill-opacity="1" fill-rule="evenodd"/></g><path fill="#2ec099" d="M 62.242188 48.257812 C 62.242188 48.257812 62.53125 44.140625 62.277344 42.703125 C 61.613281 38.878906 60.144531 31.890625 56.160156 26.585938 C 51.378906 20.226562 49.265625 9.046875 50.652344 7.144531 C 52.515625 4.582031 55.554688 9.257812 57.839844 8.117188 C 59.074219 7.496094 61.417969 3.539062 63.976562 3.636719 C 67.332031 3.769531 69.324219 12.601562 70.925781 12.308594 C 72.039062 12.101562 72.683594 10.300781 73.097656 9.484375 C 74.300781 7.167969 76.105469 3.375 78.597656 2.226562 C 83.113281 0.140625 81.652344 9.265625 84.679688 10.480469 C 85.777344 10.914062 93.699219 5.089844 97.898438 7.0625 C 101.464844 8.75 99.621094 13.972656 98.738281 16.621094 C 96.335938 23.808594 93.226562 29.703125 92.082031 37.304688 C 91.664062 40.09375 91.8125 42.84375 92.164062 45.613281 C 92.253906 46.355469 93.085938 47.972656 92.164062 48.4375 C 91.671875 48.679688 90.90625 48.476562 90.382812 48.511719 C 88.085938 48.664062 85.824219 48.671875 83.519531 48.753906 C 80.957031 48.84375 78.523438 49.488281 75.925781 49.398438 C 72.925781 49.300781 70.070312 48.503906 67.128906 48.355469 C 64.734375 48.234375 62.242188 48.257812 62.242188 48.257812 " fill-opacity="1" fill-rule="evenodd"/><path fill="#ffd111" d="M 100.730469 43.25 C 100.730469 41.742188 100.136719 40.296875 99.066406 39.230469 C 97.996094 38.160156 96.550781 37.566406 95.039062 37.566406 C 85.1875 37.566406 65.054688 37.566406 55.195312 37.566406 C 53.691406 37.566406 52.238281 38.160156 51.175781 39.230469 C 50.105469 40.296875 49.511719 41.742188 49.511719 43.25 C 49.511719 44.757812 50.105469 46.203125 51.175781 47.269531 C 52.238281 48.332031 53.691406 48.933594 55.195312 48.933594 C 65.054688 48.933594 85.1875 48.933594 95.039062 48.933594 C 96.550781 48.933594 97.996094 48.332031 99.066406 47.269531 C 100.136719 46.203125 100.730469 44.757812 100.730469 43.25 " fill-opacity="1" fill-rule="evenodd"/><path fill="#ffffff" d="M 63.722656 91.441406 C 62.351562 91.5625 60.984375 91.679688 59.605469 91.742188 C 59.3125 91.761719 56.429688 91.671875 55.234375 92.136719 C 53.914062 92.648438 53.375 93.636719 53.292969 94.574219 C 53.175781 95.902344 54.164062 97.0625 55.488281 97.175781 C 56.167969 97.230469 56.8125 97.003906 57.285156 96.578125 C 57.457031 96.5625 57.671875 96.546875 57.832031 96.539062 C 58.765625 96.5 59.695312 96.554688 59.84375 96.546875 C 61.117188 96.480469 62.390625 96.382812 63.664062 96.269531 C 63.691406 100.152344 63.804688 104.035156 63.421875 107.695312 C 63.132812 110.519531 62.046875 112.972656 60.398438 115.207031 C 60.097656 115.625 59.703125 116.152344 59.304688 116.707031 C 58.175781 118.0625 57.132812 119.726562 57.132812 119.726562 C 56.453125 120.828125 56.773438 122.269531 57.851562 122.988281 C 58.929688 123.699219 60.382812 123.4375 61.140625 122.382812 C 61.140625 122.382812 62.269531 120.820312 63.28125 119.425781 C 63.386719 119.316406 63.492188 119.21875 63.589844 119.136719 C 65.558594 117.574219 69.269531 116.691406 71.777344 117.058594 C 77.730469 117.941406 82.695312 120.738281 88.5625 121.828125 C 89.5 122 90.382812 122.304688 91.183594 122.441406 C 92.261719 122.628906 93.257812 122.582031 94.15625 122.207031 C 95.078125 121.820312 95.984375 121.097656 96.703125 119.667969 C 97.300781 118.476562 96.820312 117.035156 95.625 116.4375 C 94.433594 115.84375 92.988281 116.324219 92.390625 117.515625 C 92.359375 117.582031 92.308594 117.664062 92.261719 117.71875 C 92.097656 117.703125 91.769531 117.652344 91.558594 117.605469 C 90.898438 117.441406 90.1875 117.230469 89.433594 117.089844 C 83.511719 116 78.5 113.183594 72.488281 112.296875 C 70.941406 112.066406 69.089844 112.183594 67.242188 112.546875 C 67.734375 111.171875 68.058594 109.71875 68.214844 108.195312 C 68.632812 104.214844 68.484375 99.996094 68.476562 95.789062 C 70.949219 95.535156 73.425781 95.308594 75.890625 95.242188 C 77.535156 95.203125 78.914062 95.632812 80.507812 95.78125 C 82.171875 95.925781 82.738281 95.257812 83.007812 94.933594 C 83.234375 94.65625 83.570312 94.191406 83.570312 93.277344 C 83.570312 91.949219 82.492188 90.871094 81.160156 90.871094 C 80.957031 90.871094 80.746094 90.894531 80.554688 90.945312 C 78.921875 90.765625 77.476562 90.390625 75.769531 90.4375 C 73.367188 90.496094 70.96875 90.714844 68.574219 90.953125 C 68.785156 86.46875 69.503906 82.105469 71.875 78.269531 C 72.902344 76.589844 74.847656 75.480469 76.882812 75.058594 C 78.816406 74.648438 80.882812 74.863281 82.3125 76.085938 L 83.007812 76.671875 C 83.449219 77.660156 84.519531 78.261719 85.628906 78.066406 C 86.9375 77.839844 87.816406 76.589844 87.582031 75.285156 C 87.5 74.773438 87.246094 74.199219 86.8125 73.679688 C 86.414062 73.199219 85.785156 72.722656 85.457031 72.4375 C 82.917969 70.261719 79.316406 69.632812 75.890625 70.34375 C 72.558594 71.042969 69.457031 73 67.765625 75.742188 C 64.839844 80.488281 63.941406 85.878906 63.722656 91.441406 " fill-opacity="1" fill-rule="evenodd"/><g clip-path="url(#05c75a0b5e)"><path fill="#fe0000" d="M 134.140625 91.773438 C 127.429688 94.132812 123.097656 95.527344 121.148438 95.945312 L 121.179688 95.941406 C 93.761719 102.433594 77.492188 106.53125 72.371094 108.234375 C 72.347656 108.242188 72.328125 108.246094 72.304688 108.253906 C 61.007812 111.453125 46.511719 116.152344 28.816406 122.351562 C 28.800781 122.355469 28.789062 122.363281 28.773438 122.367188 C 25.289062 123.460938 23.050781 124.039062 22.058594 124.097656 C 21.734375 124.117188 21.410156 124.03125 21.140625 123.851562 C 20.242188 123.253906 20.089844 122.519531 20.679688 121.648438 C 20.863281 121.375 21.132812 121.15625 21.488281 120.988281 C 21.742188 120.867188 22.097656 120.75 22.554688 120.632812 L 22.539062 120.636719 C 34.695312 117.398438 42.902344 115.066406 47.15625 113.636719 L 47.160156 113.636719 C 73.816406 104.746094 87.789062 100.164062 89.078125 99.890625 C 89.210938 99.859375 89.335938 99.847656 89.453125 99.84375 L 89 99.917969 C 91.921875 98.96875 105.863281 94.898438 130.824219 87.707031 C 131.617188 87.476562 132.449219 87.929688 132.679688 88.714844 C 132.910156 89.5 132.453125 90.324219 131.660156 90.550781 C 106.730469 97.734375 92.820312 101.792969 89.933594 102.734375 C 89.789062 102.78125 89.636719 102.804688 89.484375 102.808594 C 89.570312 102.804688 89.644531 102.800781 89.703125 102.785156 C 88.527344 103.035156 74.664062 107.589844 48.113281 116.445312 L 48.117188 116.445312 C 43.800781 117.894531 35.535156 120.246094 23.316406 123.5 L 23.300781 123.503906 C 23.03125 123.574219 22.851562 123.625 22.769531 123.667969 C 22.910156 123.601562 23.042969 123.476562 23.164062 123.292969 C 23.683594 122.527344 23.5625 121.890625 22.804688 121.386719 L 21.882812 121.140625 C 22.625 121.097656 24.621094 120.5625 27.867188 119.542969 L 27.820312 119.558594 C 45.574219 113.339844 60.125 108.621094 71.480469 105.40625 L 71.417969 105.425781 C 76.625 103.695312 92.976562 99.574219 120.484375 93.058594 L 120.511719 93.050781 C 122.335938 92.65625 126.546875 91.300781 133.140625 88.984375 C 133.917969 88.707031 134.773438 89.113281 135.050781 89.882812 C 135.324219 90.652344 134.917969 91.5 134.140625 91.773438 Z M 134.140625 91.773438 " fill-opacity="1" fill-rule="nonzero"/></g><g clip-path="url(#078f5c65ef)"><path fill="#fe0000" d="M 24.609375 79.738281 C 38.484375 84.238281 50.472656 88.597656 60.582031 92.816406 L 60.59375 92.820312 L 131.496094 122.945312 L 130.238281 125.628906 C 106.351562 113.792969 68.476562 99.816406 16.613281 83.703125 C 15.824219 83.457031 15.386719 82.625 15.632812 81.84375 C 15.878906 81.0625 16.71875 80.628906 17.507812 80.875 C 69.523438 97.039062 107.546875 111.074219 131.578125 122.980469 C 132.300781 123.339844 132.605469 124.203125 132.261719 124.929688 C 131.921875 125.65625 131.0625 125.984375 130.316406 125.667969 L 59.414062 95.542969 L 59.421875 95.546875 C 49.386719 91.359375 37.472656 87.03125 23.679688 82.550781 C 22.894531 82.296875 22.464844 81.460938 22.722656 80.683594 C 22.980469 79.90625 23.824219 79.484375 24.609375 79.738281 Z M 24.609375 79.738281 " fill-opacity="1" fill-rule="nonzero"/></g></svg>