<svg xmlns="http://www.w3.org/2000/svg" xmlns:xlink="http://www.w3.org/1999/xlink" width="100" zoomAndPan="magnify" viewBox="0 0 75 74.999997" height="100" preserveAspectRatio="xMidYMid meet" version="1.0"><defs><g/><clipPath id="667ee41969"><path d="M 37.5 0 L 42.78125 4.164062 L 49.089844 1.835938 L 52.820312 7.429688 L 59.542969 7.160156 L 61.363281 13.636719 L 67.839844 15.457031 L 67.570312 22.179688 L 73.164062 25.910156 L 70.835938 32.21875 L 75 37.5 L 70.835938 42.78125 L 73.164062 49.089844 L 67.570312 52.820312 L 67.839844 59.542969 L 61.363281 61.363281 L 59.542969 67.839844 L 52.820312 67.570312 L 49.089844 73.164062 L 42.78125 70.835938 L 37.5 75 L 32.21875 70.835938 L 25.910156 73.164062 L 22.179688 67.570312 L 15.457031 67.839844 L 13.636719 61.363281 L 7.160156 59.542969 L 7.429688 52.820312 L 1.835938 49.089844 L 4.164062 42.78125 L 0 37.5 L 4.164062 32.21875 L 1.835938 25.910156 L 7.429688 22.179688 L 7.160156 15.457031 L 13.636719 13.636719 L 15.457031 7.160156 L 22.179688 7.429688 L 25.910156 1.835938 L 32.21875 4.164062 Z M 37.5 0 " clip-rule="nonzero"/></clipPath></defs><g clip-path="url(#667ee41969)"><rect x="-7.5" width="90" fill="#008646" y="-7.5" height="89.999996" fill-opacity="1"/></g><g fill="#ffffff" fill-opacity="1"><g transform="translate(13.393652, 37.361316)"><g><path d="M 7.375 -10.640625 C 8.300781 -10.640625 9.140625 -10.421875 9.890625 -9.984375 C 10.640625 -9.546875 11.222656 -8.929688 11.640625 -8.140625 C 12.066406 -7.347656 12.28125 -6.4375 12.28125 -5.40625 C 12.28125 -3.59375 11.734375 -2.203125 10.640625 -1.234375 C 9.546875 -0.265625 7.894531 0.21875 5.6875 0.21875 C 3.789062 0.21875 2.242188 -0.0703125 1.046875 -0.65625 L 1.046875 -4.25 C 1.691406 -3.957031 2.414062 -3.710938 3.21875 -3.515625 C 4.03125 -3.328125 4.726562 -3.234375 5.3125 -3.234375 C 6.125 -3.234375 6.75 -3.40625 7.1875 -3.75 C 7.625 -4.09375 7.84375 -4.597656 7.84375 -5.265625 C 7.84375 -5.890625 7.617188 -6.375 7.171875 -6.71875 C 6.734375 -7.070312 6.0625 -7.25 5.15625 -7.25 C 4.46875 -7.25 3.726562 -7.117188 2.9375 -6.859375 L 1.328125 -7.65625 L 1.9375 -16.234375 L 11.1875 -16.234375 L 11.1875 -12.578125 L 5.65625 -12.578125 L 5.46875 -10.4375 C 6.039062 -10.539062 6.445312 -10.597656 6.6875 -10.609375 C 6.9375 -10.628906 7.164062 -10.640625 7.375 -10.640625 Z M 7.375 -10.640625 "/></g></g></g><g fill="#ffffff" fill-opacity="1"><g transform="translate(26.713472, 37.361316)"><g><path d="M 12.515625 -8.09375 C 12.515625 -5.21875 12.035156 -3.113281 11.078125 -1.78125 C 10.117188 -0.445312 8.644531 0.21875 6.65625 0.21875 C 4.71875 0.21875 3.253906 -0.476562 2.265625 -1.875 C 1.285156 -3.269531 0.796875 -5.34375 0.796875 -8.09375 C 0.796875 -10.976562 1.273438 -13.09375 2.234375 -14.4375 C 3.203125 -15.789062 4.675781 -16.46875 6.65625 -16.46875 C 8.59375 -16.46875 10.050781 -15.765625 11.03125 -14.359375 C 12.019531 -12.953125 12.515625 -10.863281 12.515625 -8.09375 Z M 5.15625 -8.09375 C 5.15625 -6.257812 5.269531 -5 5.5 -4.3125 C 5.726562 -3.625 6.113281 -3.28125 6.65625 -3.28125 C 7.207031 -3.28125 7.59375 -3.632812 7.8125 -4.34375 C 8.039062 -5.050781 8.15625 -6.300781 8.15625 -8.09375 C 8.15625 -9.894531 8.039062 -11.15625 7.8125 -11.875 C 7.582031 -12.59375 7.195312 -12.953125 6.65625 -12.953125 C 6.113281 -12.953125 5.726562 -12.601562 5.5 -11.90625 C 5.269531 -11.21875 5.15625 -9.945312 5.15625 -8.09375 Z M 5.15625 -8.09375 "/></g></g></g><g fill="#ffffff" fill-opacity="1"><g transform="translate(40.033292, 37.361316)"><g><path d="M 3.75 -11.34375 C 3.75 -10.488281 3.816406 -9.875 3.953125 -9.5 C 4.097656 -9.125 4.3125 -8.9375 4.59375 -8.9375 C 4.875 -8.9375 5.082031 -9.117188 5.21875 -9.484375 C 5.351562 -9.859375 5.421875 -10.476562 5.421875 -11.34375 C 5.421875 -12.195312 5.351562 -12.8125 5.21875 -13.1875 C 5.082031 -13.5625 4.875 -13.75 4.59375 -13.75 C 4.300781 -13.75 4.085938 -13.554688 3.953125 -13.171875 C 3.816406 -12.785156 3.75 -12.175781 3.75 -11.34375 Z M 8.78125 -11.390625 C 8.78125 -9.765625 8.410156 -8.503906 7.671875 -7.609375 C 6.941406 -6.710938 5.898438 -6.265625 4.546875 -6.265625 C 3.273438 -6.265625 2.265625 -6.722656 1.515625 -7.640625 C 0.773438 -8.566406 0.40625 -9.816406 0.40625 -11.390625 C 0.40625 -13.015625 0.769531 -14.265625 1.5 -15.140625 C 2.226562 -16.023438 3.242188 -16.46875 4.546875 -16.46875 C 5.847656 -16.46875 6.878906 -16.007812 7.640625 -15.09375 C 8.398438 -14.1875 8.78125 -12.953125 8.78125 -11.390625 Z M 16.875 -16.234375 L 7.875 0 L 4.578125 0 L 13.578125 -16.234375 Z M 16.09375 -4.890625 C 16.09375 -4.035156 16.160156 -3.414062 16.296875 -3.03125 C 16.441406 -2.65625 16.65625 -2.46875 16.9375 -2.46875 C 17.257812 -2.46875 17.476562 -2.6875 17.59375 -3.125 C 17.71875 -3.5625 17.78125 -4.148438 17.78125 -4.890625 C 17.78125 -5.628906 17.71875 -6.210938 17.59375 -6.640625 C 17.476562 -7.078125 17.257812 -7.296875 16.9375 -7.296875 C 16.644531 -7.296875 16.429688 -7.101562 16.296875 -6.71875 C 16.160156 -6.332031 16.09375 -5.722656 16.09375 -4.890625 Z M 21.125 -4.921875 C 21.125 -3.304688 20.753906 -2.050781 20.015625 -1.15625 C 19.285156 -0.269531 18.242188 0.171875 16.890625 0.171875 C 15.617188 0.171875 14.609375 -0.285156 13.859375 -1.203125 C 13.117188 -2.128906 12.75 -3.367188 12.75 -4.921875 C 12.75 -6.554688 13.113281 -7.8125 13.84375 -8.6875 C 14.570312 -9.5625 15.585938 -10 16.890625 -10 C 18.191406 -10 19.222656 -9.539062 19.984375 -8.625 C 20.742188 -7.71875 21.125 -6.484375 21.125 -4.921875 Z M 21.125 -4.921875 "/></g></g></g><g fill="#ffffff" fill-opacity="1"><g transform="translate(25.788569, 55.080644)"><g><path d="M 9.296875 -4.46875 C 9.296875 -2.96875 8.925781 -1.828125 8.1875 -1.046875 C 7.457031 -0.265625 6.382812 0.125 4.96875 0.125 C 3.570312 0.125 2.5 -0.265625 1.75 -1.046875 C 1.007812 -1.835938 0.640625 -2.984375 0.640625 -4.484375 C 0.640625 -5.960938 1.007812 -7.09375 1.75 -7.875 C 2.488281 -8.65625 3.566406 -9.046875 4.984375 -9.046875 C 6.398438 -9.046875 7.472656 -8.65625 8.203125 -7.875 C 8.929688 -7.101562 9.296875 -5.96875 9.296875 -4.46875 Z M 3.171875 -4.46875 C 3.171875 -2.75 3.769531 -1.890625 4.96875 -1.890625 C 5.570312 -1.890625 6.019531 -2.097656 6.3125 -2.515625 C 6.613281 -2.929688 6.765625 -3.582031 6.765625 -4.46875 C 6.765625 -5.351562 6.613281 -6.007812 6.3125 -6.4375 C 6.019531 -6.863281 5.578125 -7.078125 4.984375 -7.078125 C 3.773438 -7.078125 3.171875 -6.207031 3.171875 -4.46875 Z M 3.171875 -4.46875 "/></g></g></g><g fill="#ffffff" fill-opacity="1"><g transform="translate(35.736306, 55.080644)"><g><path d="M 3.328125 0 L 0.96875 0 L 0.96875 -8.90625 L 6.234375 -8.90625 L 6.234375 -6.984375 L 3.328125 -6.984375 L 3.328125 -5.28125 L 6 -5.28125 L 6 -3.34375 L 3.328125 -3.34375 Z M 3.328125 0 "/></g></g></g><g fill="#ffffff" fill-opacity="1"><g transform="translate(42.465658, 55.080644)"><g><path d="M 3.328125 0 L 0.96875 0 L 0.96875 -8.90625 L 6.234375 -8.90625 L 6.234375 -6.984375 L 3.328125 -6.984375 L 3.328125 -5.28125 L 6 -5.28125 L 6 -3.34375 L 3.328125 -3.34375 Z M 3.328125 0 "/></g></g></g></svg>