<svg width="15" height="15" viewBox="0 0 15 15" fill="none" xmlns="http://www.w3.org/2000/svg">
<g id="carbon:catalog-publish">
<path id="Vector" d="M5.625 9.375L4.96875 10.0312L6.1875 11.25H1.875V12.1875H6.1875L4.96875 13.4062L5.625 14.0625L7.96875 11.7188L5.625 9.375ZM8.4375 7.03125H4.6875V7.96875H8.4375V7.03125ZM8.4375 3.75H4.6875V4.6875H8.4375V3.75Z" fill="#777777"/>
<path id="Vector_2" d="M8.90625 13.125H11.25V11.25H10.3125V10.3125H11.25V7.96875H10.3125V7.03125H11.25V4.6875H10.3125V3.75H11.25V1.875H2.8125V9.375H1.875V1.875C1.875 1.35938 2.29688 0.9375 2.8125 0.9375H11.25C11.7656 0.9375 12.1875 1.35938 12.1875 1.875V3.75H13.125V4.6875H12.1875V7.03125H13.125V7.96875H12.1875V10.3125H13.125V11.25H12.1875V13.125C12.1875 13.6406 11.7656 14.0625 11.25 14.0625H8.90625V13.125Z" fill="#777777"/>
</g>
</svg>
