<svg width="69" height="17" viewBox="0 0 69 17" fill="none" xmlns="http://www.w3.org/2000/svg">
<path d="M8.62777 0C5.6338 0 2.73642 0.312813 0 0.913414V6.63163C0 7.90791 0.225352 9.07157 0.676056 10.1226C1.09457 11.0986 1.70624 11.987 2.51107 12.7753C3.89537 14.1266 5.87525 15.2152 8.51509 16.0661L8.62777 16.1036L8.74044 16.0661C11.3964 15.2027 13.3602 14.1266 14.7445 12.7753C15.5493 11.987 16.161 11.0986 16.5795 10.1226C17.0302 9.08408 17.2555 7.90791 17.2555 6.63163V0.913414C14.5191 0.312813 11.6217 0 8.62777 0Z" fill="#440099"/>
<path d="M4.52365 9.75959V9.54688L3.97637 9.85969L3.79931 9.65949C3.44518 9.94728 3.12325 10.2601 2.84961 10.5979C3.3486 10.5103 3.8315 10.3727 4.2983 10.185L4.12124 9.98481L4.52365 9.75959Z" fill="white"/>
<path d="M13.6665 4.60408L14.0528 4.37885L13.9241 4.24122L13.5377 4.45393L13.6182 4.04102L12.588 4.75423L12.5397 5.01699L11.3164 5.70518H11.7027L12.6685 5.16714L13.0226 5.20468L14.1977 4.66664L13.6665 4.60408Z" fill="white"/>
<path d="M8.62908 10.2973C8.5164 10.2973 8.41982 10.2848 8.30714 10.2598L5.6834 11.7488L5.50634 11.5486C5.15221 11.8363 4.83028 12.1492 4.55664 12.487C5.05563 12.3994 5.53853 12.2618 6.00533 12.0741L5.82827 11.8739L8.62908 10.2973Z" fill="white"/>
<path d="M15.3723 6.49373L15.7586 6.2685L15.6298 6.13086L15.2435 6.34358L15.324 5.93066L14.2938 6.64388L14.2455 6.90664L12.7324 7.75749V7.98272L14.3743 7.05679L14.7284 7.09433L15.9195 6.55629L15.3723 6.49373Z" fill="white"/>
<path d="M6.82586 9.89746H6.43954L4.82988 10.8109L4.65282 10.6107C4.2987 10.8985 3.97677 11.2113 3.70312 11.5491C4.20212 11.4615 4.68502 11.3239 5.15182 11.1362L4.97475 10.936L6.82586 9.89746Z" fill="white"/>
<path d="M14.5191 5.54353L14.9055 5.33082L14.7767 5.18067L14.3904 5.40589L14.4709 4.98047L13.4407 5.69368L13.3924 5.96896L12.7324 6.33182V6.55705L13.5212 6.10659L13.8753 6.15665L15.0503 5.60609L14.5191 5.54353Z" fill="white"/>
<path d="M11.8964 1.45131C11.8964 1.45131 11.8481 1.45131 11.7837 1.45131C11.6227 1.45131 11.3169 1.46382 11.1076 1.62649C11.0271 1.68905 11.011 1.76412 11.011 1.8392C11.011 1.8392 11.011 1.85171 11.011 1.86422V1.87674C11.011 1.88925 11.011 1.88925 11.011 1.88925C11.011 1.90176 11.011 1.91427 11.0271 1.92679C10.9949 1.90176 10.9628 1.87674 10.9145 1.86422C10.5764 1.75161 10.2062 1.88925 10.2062 1.88925C10.2062 1.88925 10.2867 2.21457 10.673 2.30216C10.7696 2.32719 10.8662 2.31467 10.9306 2.28965L10.8501 2.40226C10.7535 2.5399 10.5442 2.62749 10.335 2.58995C10.0613 2.55241 9.88428 2.35221 9.94867 2.15201L9.83599 2.1395L9.72331 2.12699C9.69112 2.22709 9.62674 2.31467 9.51406 2.37724C9.40138 2.4398 9.27261 2.45231 9.14384 2.4398C8.91849 2.40226 8.74142 2.25211 8.74142 2.06442V1.82669C8.80581 1.88925 8.90239 1.9393 9.01506 1.9393C9.38529 1.9393 9.65893 1.70156 9.65893 1.70156C9.65893 1.70156 9.38529 1.46382 9.01506 1.46382C8.96677 1.46382 8.93458 1.47634 8.88629 1.48885C8.96678 1.4388 9.01506 1.36372 9.01506 1.27614C9.01506 0.963323 8.61265 0.725586 8.61265 0.725586C8.61265 0.725586 8.21024 0.963323 8.21024 1.27614C8.21024 1.36372 8.27462 1.42629 8.33901 1.48885C8.30682 1.47634 8.25853 1.46382 8.21024 1.46382C7.84001 1.46382 7.56637 1.70156 7.56637 1.70156C7.56637 1.70156 7.84001 1.9393 8.21024 1.9393C8.33901 1.9393 8.41949 1.88925 8.48388 1.82669V2.06442C8.48388 2.25211 8.32291 2.40226 8.08146 2.4398C7.95269 2.45231 7.82392 2.4398 7.71124 2.37724C7.59857 2.31467 7.53418 2.22709 7.50199 2.12699L7.38931 2.1395L7.27663 2.15201C7.32492 2.36472 7.14786 2.55241 6.87422 2.58995C6.66496 2.61497 6.45571 2.5399 6.35913 2.40226L6.32694 2.30216C6.40742 2.32719 6.504 2.32719 6.58448 2.31467C6.9708 2.22709 7.05128 1.90176 7.05128 1.90176C7.05128 1.90176 6.68106 1.76412 6.34303 1.87674C6.29474 1.88925 6.26255 1.91427 6.23036 1.9393C6.23036 1.92679 6.23036 1.91427 6.23036 1.90176C6.23036 1.88925 6.23036 1.88925 6.23036 1.88925V1.87674C6.23036 1.86422 6.23036 1.86422 6.23036 1.85171C6.23036 1.77664 6.19816 1.70156 6.13378 1.639C5.92452 1.48885 5.61869 1.46382 5.45772 1.46382C5.39333 1.46382 5.34504 1.46382 5.34504 1.46382C5.34504 1.46382 5.32895 1.52639 5.34504 1.61397C5.5382 1.77664 5.73136 1.96432 5.89233 2.15201C6.11768 2.41477 6.29474 2.69005 6.43961 2.97784L6.87422 3.17804L6.63277 3.50336C6.66496 3.641 6.69716 3.76613 6.72935 3.90376C6.72935 3.90376 6.72935 3.90376 6.74545 3.90376C7.35712 4.00386 8.00098 4.05391 8.62875 4.05391C9.27261 4.05391 9.90038 4.00386 10.512 3.90376C10.512 3.90376 10.512 3.90376 10.5281 3.90376C10.5442 3.76613 10.5764 3.62849 10.6247 3.50336L10.3833 3.17804L10.8179 2.97784C10.9628 2.69005 11.1398 2.41477 11.3652 2.15201C11.5261 1.96432 11.7032 1.78915 11.9124 1.61397C11.9124 1.51387 11.8964 1.45131 11.8964 1.45131ZM9.70722 2.81517C9.86818 2.81517 9.99696 2.91528 9.99696 3.0404C9.99696 3.16553 9.86818 3.26563 9.70722 3.26563C9.54625 3.26563 9.41748 3.16553 9.41748 3.0404C9.43358 2.91528 9.56235 2.81517 9.70722 2.81517ZM8.62875 2.58995L9.03116 2.90276L8.62875 3.21558L8.22633 2.90276L8.62875 2.58995ZM7.53418 2.81517C7.69515 2.81517 7.82392 2.91528 7.82392 3.0404C7.82392 3.16553 7.69515 3.26563 7.53418 3.26563C7.37321 3.26563 7.24444 3.16553 7.24444 3.0404C7.26054 2.91528 7.37321 2.81517 7.53418 2.81517ZM10.3189 3.7411C9.7716 3.81618 9.19213 3.86623 8.62875 3.86623C8.06537 3.86623 7.48589 3.82869 6.93861 3.7411C6.93861 3.71608 6.92251 3.69105 6.92251 3.66603C7.48589 3.57844 8.04927 3.5409 8.62875 3.5409C9.20822 3.5409 9.7877 3.57844 10.335 3.66603C10.335 3.69105 10.335 3.71608 10.3189 3.7411Z" fill="white"/>
<path d="M8.62888 6.01777L5.44176 4.21597L5.08763 4.25351L3.89648 3.71547L4.44377 3.65291L4.05745 3.42768L4.18622 3.29004L4.57254 3.51527L4.49206 3.08984L5.52224 3.80306L5.57053 4.07833L8.62888 5.79255L11.6872 4.07833L11.7355 3.80306L12.7657 3.08984L12.6852 3.51527L13.0715 3.29004L13.2003 3.42768L12.814 3.65291L13.3452 3.71547L12.1701 4.25351L11.816 4.21597L8.62888 6.01777Z" fill="white"/>
<path d="M12.1692 6.20605V9.4468H9.2074L9.19131 9.50936C9.12692 9.70956 8.90157 9.8472 8.62793 9.8472C8.35429 9.8472 8.12893 9.70956 8.08064 9.50936L8.06455 9.4468H5.08668V6.20605H4.86133V9.63448H7.88748C8.00016 9.87222 8.306 10.0349 8.64402 10.0349C8.98205 10.0349 9.28789 9.87222 9.40056 9.63448H12.4267V6.20605C12.3945 6.20605 12.1692 6.20605 12.1692 6.20605Z" fill="white"/>
<path d="M14.424 10.5979C14.1504 10.2601 13.8446 9.94728 13.4743 9.65949L13.2973 9.85969L12.75 9.54688V9.75959L13.1685 9.99733L12.9914 10.1975C13.4422 10.3727 13.9251 10.5103 14.424 10.5979Z" fill="white"/>
<path d="M5.55403 5.70518H5.94035L4.71701 5.01699L4.66872 4.75423L3.63854 4.04102L3.71903 4.45393L3.33271 4.24122L3.20393 4.37885L3.59025 4.60408L3.04297 4.66664L4.23412 5.20468L4.58824 5.16714L5.55403 5.70518Z" fill="white"/>
<path d="M4.52346 6.33182L3.8635 5.96896L3.81521 5.69368L2.78503 4.98047L2.86551 5.40589L2.47919 5.18067L2.35042 5.33082L2.73674 5.54353L2.18945 5.60609L3.3806 6.15665L3.73473 6.10659L4.52346 6.55705V6.33182Z" fill="white"/>
<path d="M13.5705 11.5491C13.2968 11.2113 12.991 10.8985 12.6208 10.6107L12.4437 10.8109L10.8341 9.89746H10.4316L12.2988 10.9485L12.1218 11.1487C12.5725 11.3239 13.0715 11.4615 13.5705 11.5491Z" fill="white"/>
<path d="M4.52306 7.75749L3.00998 6.90664L2.96169 6.64388L1.93151 5.93066L2.01199 6.34358L1.62568 6.13086L1.4969 6.2685L1.88322 6.49373L1.33594 6.55629L2.52708 7.09433L2.88121 7.05679L4.52306 7.98272V7.75749Z" fill="white"/>
<path d="M11.7677 11.5486L11.5746 11.7488L8.95084 10.2598C8.85426 10.2848 8.74158 10.2973 8.62891 10.2973L11.4458 11.8864L11.2687 12.0866C11.7194 12.2618 12.2184 12.3994 12.7174 12.4995C12.4438 12.1492 12.138 11.8363 11.7677 11.5486Z" fill="white"/>
<path d="M4.52326 8.33381V8.12109L3.12285 8.90938L2.94579 8.70918C2.59167 8.99697 2.26974 9.30978 1.99609 9.64762C2.49509 9.56003 2.97799 9.4224 3.44479 9.23471L3.26772 9.03451L4.52326 8.33381Z" fill="white"/>
<path d="M15.2772 9.65934C15.0196 9.3215 14.6977 9.00869 14.3275 8.7209L14.1504 8.9211L12.75 8.13281V8.34553L14.0216 9.05874L13.8446 9.25894C14.2953 9.43411 14.7782 9.57175 15.2772 9.65934Z" fill="white"/>
<path d="M10.1569 13.9013C10.1891 13.8137 10.3018 13.5635 10.334 13.4759C10.3983 13.3257 10.2857 13.1631 10.0925 13.113L9.57741 13.0379L9.93154 12.7376C10.0603 12.6125 10.012 12.4248 9.85105 12.3372C9.75447 12.2872 9.48083 12.1245 9.38425 12.0745C9.31987 12.0369 9.23938 12.0244 9.1589 12.0244C9.04622 12.0244 8.93355 12.062 8.85306 12.137L8.61162 12.4999L8.37017 12.137C8.30578 12.062 8.17701 12.0244 8.06433 12.0244C7.98385 12.0244 7.90337 12.0369 7.83898 12.0745C7.7424 12.1245 7.46876 12.2872 7.37218 12.3372C7.21121 12.4373 7.16292 12.6125 7.2917 12.7376L7.64582 13.0379L7.13073 13.113C6.93757 13.1631 6.8249 13.3257 6.88928 13.4759C6.92148 13.5635 7.03415 13.8137 7.06634 13.9013C7.11463 14.0264 7.2595 14.1015 7.42047 14.1015C7.45266 14.1015 7.50095 14.1015 7.53315 14.089L7.99995 13.9138L7.93556 14.3142C7.93556 14.4769 8.09653 14.602 8.30578 14.602H8.86916C9.07842 14.602 9.23938 14.4769 9.23938 14.3142L9.175 13.9138L9.6418 14.089C9.67399 14.1015 9.72228 14.1015 9.75447 14.1015C9.96373 14.1015 10.1086 14.0139 10.1569 13.9013ZM8.99793 13.626C8.98184 13.626 8.96574 13.626 8.96574 13.626C8.90135 13.8262 8.64381 14.0264 8.64381 14.0264C8.64381 14.0264 8.38626 13.8262 8.32188 13.626C8.30578 13.626 8.28968 13.626 8.28968 13.626C8.03214 13.626 7.7424 13.5134 7.7424 13.5134C7.7424 13.5134 7.90337 13.2632 8.12872 13.1505C8.03214 12.9629 8.09653 12.6876 8.09653 12.6876C8.09653 12.6876 8.45065 12.7251 8.65991 12.8628C8.85306 12.7251 9.22329 12.6876 9.22329 12.6876C9.22329 12.6876 9.28767 12.9629 9.19109 13.1505C9.41645 13.2632 9.57741 13.5134 9.57741 13.5134C9.57741 13.5134 9.23938 13.626 8.99793 13.626Z" fill="white"/>
<path d="M8.62817 13.4633C8.76152 13.4633 8.86962 13.3792 8.86962 13.2756C8.86962 13.1719 8.76152 13.0879 8.62817 13.0879C8.49482 13.0879 8.38672 13.1719 8.38672 13.2756C8.38672 13.3792 8.49482 13.4633 8.62817 13.4633Z" fill="white"/>
<path d="M7.08251 12.9257H7.1147L7.16299 12.9132L7.1308 12.8881L7.1147 12.8756L7.0986 12.8631C7.03422 12.8005 7.00202 12.7255 6.98593 12.6504C6.80887 12.6879 6.664 12.7505 6.6479 12.7505L6.59961 12.7755L6.6318 12.8131C6.6318 12.8256 6.71229 12.9382 6.82496 13.0508C6.90544 12.9882 6.98593 12.9507 7.08251 12.9257Z" fill="white"/>
<path d="M8.57988 12.0244L8.59597 12.0494L8.62817 12.087L8.66036 12.0494V12.0369L8.67646 12.0244C8.74084 11.9619 8.80523 11.9118 8.90181 11.8743C8.80523 11.7491 8.69255 11.6616 8.67646 11.649L8.64426 11.624L8.61207 11.649C8.59597 11.6616 8.4833 11.7491 8.38672 11.8743C8.45111 11.9118 8.53159 11.9619 8.57988 12.0244Z" fill="white"/>
<path d="M10.5932 12.7505C10.5771 12.7505 10.4322 12.6879 10.2552 12.6504C10.2391 12.7255 10.2069 12.8005 10.1425 12.8631L10.1264 12.8756L10.1103 12.8881L10.0781 12.9132L10.1264 12.9257H10.1425H10.1586C10.2552 12.9507 10.3357 12.9882 10.4001 13.0383C10.5127 12.9257 10.5932 12.8131 10.5932 12.8005L10.6254 12.763C10.6415 12.7755 10.5932 12.7505 10.5932 12.7505Z" fill="white"/>
<path d="M9.80435 14.2893C9.73997 14.2893 9.67558 14.2768 9.6112 14.2643H9.5951L9.579 14.2518L9.53071 14.2393L9.54681 14.2768V14.2893V14.3018C9.54681 14.3769 9.51462 14.452 9.48242 14.5145C9.65948 14.5646 9.82045 14.5896 9.83655 14.5896L9.88484 14.6021L9.90093 14.5646C9.90093 14.5521 9.93313 14.4269 9.91703 14.2893C9.86874 14.2893 9.83655 14.2893 9.80435 14.2893Z" fill="white"/>
<path d="M7.71019 14.3145V14.2895L7.72629 14.252L7.678 14.277L7.6619 14.2895H7.64581C7.58142 14.302 7.51704 14.3145 7.45265 14.3145C7.42046 14.3145 7.38826 14.3145 7.35607 14.302C7.33997 14.4396 7.37217 14.5773 7.37217 14.5773L7.38826 14.6148L7.43655 14.6023C7.45265 14.6023 7.61361 14.5773 7.79068 14.5272C7.74239 14.4647 7.71019 14.3896 7.71019 14.3145Z" fill="white"/>
<path d="M8.06486 7.40723C8.01657 7.40723 7.98438 7.45728 7.98438 7.54486H8.08095C8.12924 7.54486 8.14534 7.53235 8.14534 7.49481C8.14534 7.44476 8.11315 7.40723 8.06486 7.40723Z" fill="white"/>
<path d="M5.84469 7.26953H5.8125C5.8125 7.34461 5.8125 7.41968 5.8125 7.49476V7.51978C5.8125 7.59486 5.8125 7.66993 5.8125 7.74501H5.84469C5.97347 7.74501 6.05395 7.65742 6.05395 7.50727C6.05395 7.35712 5.97347 7.26953 5.84469 7.26953Z" fill="white"/>
<path d="M7.77528 5.88086H5.3125V9.10909H7.77528C8.06502 9.10909 8.33866 9.20919 8.51572 9.38436V6.45643C8.51572 6.14362 8.17769 5.88086 7.77528 5.88086ZM6.48755 7.13211C6.55194 7.13211 6.60023 7.16965 6.60023 7.20719C6.60023 7.25724 6.55194 7.28226 6.48755 7.28226C6.42316 7.28226 6.37488 7.24472 6.37488 7.20719C6.37488 7.16965 6.42316 7.13211 6.48755 7.13211ZM5.84369 7.8203H5.50566V7.75774L5.58614 7.74522C5.58614 7.67015 5.58614 7.59507 5.58614 7.52V7.49497C5.58614 7.4199 5.58614 7.34482 5.58614 7.26975L5.50566 7.25724V7.19467H5.85978C6.11733 7.19467 6.27829 7.30729 6.27829 7.49497C6.27829 7.68266 6.10123 7.8203 5.84369 7.8203ZM6.64852 7.8203H6.32659V7.77025L6.39097 7.75774C6.39097 7.7202 6.39097 7.65764 6.39097 7.6201V7.58256C6.39097 7.53251 6.39097 7.50749 6.39097 7.46995L6.31049 7.45744V7.40739L6.56803 7.34482L6.60023 7.35734V7.49497V7.6201C6.60023 7.65764 6.60023 7.70769 6.60023 7.75774L6.66461 7.77025L6.64852 7.8203ZM6.88997 7.83281C6.80948 7.83281 6.7451 7.8203 6.68071 7.79527V7.67015H6.79339L6.80948 7.75774C6.84168 7.77025 6.85777 7.77025 6.88997 7.77025C6.95435 7.77025 6.98654 7.75774 6.98654 7.7202C6.98654 7.69517 6.97045 7.68266 6.88997 7.65764L6.82558 7.64512C6.729 7.6201 6.68071 7.57005 6.68071 7.50749C6.68071 7.40739 6.77729 7.35734 6.93826 7.35734C7.00264 7.35734 7.06703 7.36985 7.13141 7.39487L7.11532 7.50749H7.00264L6.97045 7.43241C6.95435 7.43241 6.93825 7.43241 6.90606 7.43241C6.87387 7.43241 6.82558 7.43241 6.82558 7.48246C6.82558 7.49497 6.82558 7.52 6.92216 7.53251L6.98654 7.54502C7.09922 7.57005 7.14751 7.6201 7.14751 7.69517C7.16361 7.77025 7.05093 7.83281 6.88997 7.83281ZM7.74308 7.49497C7.72699 7.53251 7.69479 7.54502 7.6626 7.54502C7.63041 7.54502 7.56602 7.53251 7.56602 7.45744L7.54992 7.4199H7.53383C7.46944 7.4199 7.40506 7.45744 7.40506 7.58256C7.40506 7.68266 7.46944 7.74522 7.56602 7.74522C7.61431 7.74522 7.6465 7.73271 7.69479 7.69517L7.74308 7.73271C7.69479 7.80779 7.61431 7.84532 7.50164 7.84532C7.29238 7.84532 7.1958 7.7202 7.1958 7.60759C7.1958 7.45744 7.32457 7.36985 7.51773 7.36985C7.6465 7.34482 7.74308 7.40739 7.74308 7.49497ZM8.1455 7.73271C8.19379 7.73271 8.24208 7.7202 8.27427 7.68266L8.32256 7.7202C8.27427 7.79527 8.19379 7.83281 8.06502 7.83281C7.88795 7.83281 7.75918 7.73271 7.75918 7.59507C7.75918 7.43241 7.92015 7.35734 8.06502 7.35734C8.20989 7.35734 8.32256 7.43241 8.32256 7.55754C8.32256 7.58256 8.32256 7.59507 8.32256 7.60759H7.98453C8.00063 7.68266 8.04892 7.73271 8.1455 7.73271Z" fill="white"/>
<path d="M9.40133 7.26953H9.36914C9.36914 7.34461 9.36914 7.41968 9.36914 7.49476V7.51978C9.36914 7.59486 9.36914 7.66993 9.36914 7.74501H9.40133C9.53011 7.74501 9.61059 7.65742 9.61059 7.50727C9.61059 7.35712 9.53011 7.26953 9.40133 7.26953Z" fill="white"/>
<path d="M10.1747 7.40723C10.1103 7.40723 10.0781 7.46979 10.0781 7.59491C10.0781 7.75758 10.1264 7.77009 10.1747 7.77009C10.2391 7.77009 10.2713 7.70753 10.2713 7.59491C10.2713 7.46979 10.2391 7.40723 10.1747 7.40723Z" fill="white"/>
<path d="M9.48263 5.88086C9.08022 5.88086 8.74219 6.14362 8.74219 6.45643V9.37185C8.91925 9.20919 9.19289 9.09658 9.48263 9.09658H11.9454V5.88086H9.48263ZM9.40215 7.8203H9.06412V7.75774L9.1607 7.74522C9.1607 7.67015 9.1607 7.59507 9.1607 7.52V7.49497C9.1607 7.4199 9.1607 7.34482 9.1607 7.26975L9.06412 7.25724V7.19467H9.41824C9.67579 7.19467 9.82066 7.30729 9.82066 7.50749C9.82066 7.70769 9.65969 7.8203 9.40215 7.8203ZM10.1748 7.83281C9.98162 7.83281 9.86895 7.73271 9.86895 7.58256C9.86895 7.44492 9.99772 7.34482 10.1748 7.34482C10.3518 7.34482 10.4806 7.44492 10.4806 7.58256C10.4806 7.7202 10.3679 7.83281 10.1748 7.83281ZM11.0762 7.48246C11.0601 7.52 11.0279 7.53251 10.9796 7.53251C10.9474 7.53251 10.883 7.52 10.883 7.44492L10.8669 7.40739H10.8508C10.7865 7.40739 10.7221 7.44492 10.7221 7.57005C10.7221 7.67015 10.7865 7.73271 10.883 7.73271C10.9313 7.73271 10.9796 7.7202 11.0118 7.68266L11.0601 7.7202C11.0118 7.79527 10.9313 7.83281 10.8026 7.83281C10.5933 7.83281 10.4967 7.70769 10.4967 7.59507C10.4967 7.44492 10.6255 7.34482 10.8186 7.34482C10.9635 7.34482 11.0601 7.40739 11.0762 7.48246ZM11.4625 7.73271C11.5108 7.73271 11.5591 7.7202 11.5913 7.68266L11.6396 7.7202C11.5913 7.79527 11.5108 7.83281 11.382 7.83281C11.205 7.83281 11.0762 7.73271 11.0762 7.59507C11.0762 7.43241 11.2372 7.35734 11.382 7.35734C11.5269 7.35734 11.6396 7.43241 11.6396 7.55754C11.6396 7.58256 11.6396 7.59507 11.6235 7.60759H11.2854C11.3176 7.68266 11.382 7.73271 11.4625 7.73271Z" fill="white"/>
<path d="M11.3969 7.40723C11.3486 7.40723 11.3164 7.45728 11.3164 7.54486H11.413C11.4613 7.54486 11.4774 7.53235 11.4774 7.49481C11.4613 7.44476 11.4452 7.40723 11.3969 7.40723Z" fill="white"/>
<path d="M50.142 9.15885C50.6893 9.15885 51.1078 8.85855 51.1078 8.44563C51.1078 8.03272 50.6893 7.73242 50.142 7.73242C49.5948 7.73242 49.1602 8.02021 49.1602 8.44563C49.1602 8.87106 49.5948 9.15885 50.142 9.15885Z" fill="#440099"/>
<path d="M23.6954 1.50195H25.7558V1.81477L25.0153 1.87733V4.06702C25.0153 5.48093 24.1461 6.044 22.8584 6.044C21.5707 6.044 20.7175 5.53098 20.7175 4.25471V3.52898C20.7175 2.97843 20.7175 2.41537 20.7014 1.86482L20.0254 1.81477V1.50195H22.6491V1.81477L21.8604 1.87733C21.8443 2.41537 21.8443 2.97843 21.8443 3.52898V4.05451C21.8443 5.14309 22.3272 5.50596 23.1642 5.50596C24.0012 5.50596 24.5163 5.09304 24.5163 3.97943V1.88984L23.6793 1.81477V1.50195H23.6954Z" fill="#440099"/>
<path d="M25.8671 5.66749L26.4305 5.57991C26.4466 5.25458 26.4466 4.81664 26.4466 4.52886V4.1785C26.4466 3.81564 26.4305 3.64047 26.4144 3.3777L25.8027 3.31514V3.06489L27.2353 2.63947L27.3802 2.70203L27.4446 3.21504C27.8792 2.82715 28.3782 2.62695 28.9094 2.62695C29.6659 2.62695 30.0844 2.98982 30.0844 3.82815V4.52886C30.0844 4.82916 30.0844 5.25458 30.1005 5.57991L30.6317 5.65498V5.93026H28.507V5.65498L29.0542 5.56739C29.0703 5.24207 29.0703 4.82915 29.0703 4.51634V3.8782C29.0703 3.35268 28.8933 3.1775 28.4587 3.1775C28.1528 3.1775 27.8309 3.29012 27.4929 3.50283V4.50383C27.4929 4.79162 27.4929 5.21704 27.509 5.55488L28.0241 5.62996V5.93026H25.8993L25.8671 5.66749Z" fill="#440099"/>
<path d="M31.0507 5.66865L31.6141 5.58106C31.6302 5.25574 31.6302 4.8178 31.6302 4.53001V4.2172C31.6302 3.85434 31.6141 3.64163 31.598 3.37886L30.9863 3.3163V3.06605L32.5316 2.64062L32.6765 2.70319L32.6443 3.64163V4.53001C32.6443 4.8178 32.6443 5.24323 32.6604 5.58106L33.1916 5.65614V5.93142H31.0507V5.66865Z" fill="#440099"/>
<path d="M35.9761 2.72754H37.618V3.00281L37.1351 3.07789L35.7186 5.95577H35.2035L33.6421 3.06538L33.1914 3.00281V2.72754H35.461V3.00281L34.8011 3.07789L35.7508 5.01733L36.6039 3.07789L35.9761 2.9903V2.72754Z" fill="#440099"/>
<path d="M37.666 4.35484C37.666 3.27876 38.6801 2.64062 39.7586 2.64062C40.7727 2.64062 41.4487 3.17866 41.4487 3.99198C41.4487 4.14213 41.4326 4.25474 41.4004 4.35484H38.7606C38.8089 5.13062 39.324 5.50599 40.0483 5.50599C40.5634 5.50599 40.8853 5.33081 41.1751 5.08056L41.4165 5.25574C41.0785 5.75624 40.499 6.03152 39.6942 6.03152C38.503 6.03152 37.6821 5.40589 37.666 4.35484ZM38.7767 4.04203H39.9517C40.3702 4.04203 40.4668 3.90439 40.4668 3.65414C40.4668 3.24123 40.1288 2.95344 39.6942 2.95344C39.2596 2.95344 38.8411 3.24123 38.7767 4.04203Z" fill="#440099"/>
<path d="M45.6992 5.75563V4.97985H46.2787L46.4397 5.60548C46.6489 5.66804 46.8582 5.70558 47.1157 5.70558C47.6952 5.70558 47.9849 5.54292 47.9849 5.25513C47.9849 5.00488 47.7757 4.86724 47.2284 4.7296L46.7938 4.61699C46.1499 4.45433 45.7475 4.14152 45.7475 3.67855C45.7475 3.128 46.327 2.66504 47.3894 2.66504C47.8723 2.66504 48.2747 2.76514 48.6771 2.94031L48.6288 3.64101H48.0654L47.9044 3.07795C47.7435 3.0279 47.5825 3.00288 47.3733 3.00288C46.9226 3.00288 46.6489 3.16554 46.6489 3.4283C46.6489 3.66604 46.826 3.79116 47.4055 3.94131L47.7435 4.01639C48.5805 4.24162 48.9024 4.56694 48.9024 5.0299C48.9024 5.6305 48.2586 6.05593 47.0996 6.05593C46.5684 6.0309 46.1499 5.94332 45.6992 5.75563Z" fill="#440099"/>
<path d="M49.2563 5.66865L49.8196 5.58106C49.8196 5.25574 49.8196 4.8178 49.8196 4.53001V4.2172C49.8196 3.85434 49.8196 3.64163 49.7874 3.37886L49.1758 3.3163V3.06605L50.721 2.64062L50.8659 2.70319L50.8337 3.64163V4.53001C50.8337 4.8178 50.8337 5.24323 50.8337 5.58106L51.3649 5.65614V5.93142H49.2241L49.2563 5.66865Z" fill="#440099"/>
<path d="M52.0736 5.19283C52.0736 4.99263 52.0736 4.82997 52.0736 4.56721V3.14078H51.4297V2.79043L52.1218 2.72787L52.4438 1.81445H53.1359L53.1037 2.74038H54.1339V3.15329H53.0876V5.13027C53.0876 5.45559 53.2647 5.60574 53.5383 5.60574C53.7154 5.60574 53.8603 5.55569 54.0695 5.44308L54.2788 5.60574C54.0534 5.88102 53.6671 6.04368 53.1359 6.04368C52.4921 6.03117 52.0736 5.78092 52.0736 5.19283Z" fill="#440099"/>
<path d="M61.0391 4.34233C61.0391 3.26625 62.0049 2.64062 63.1155 2.64062C64.2262 2.64062 65.2081 3.26625 65.2081 4.34233C65.2081 5.4184 64.2906 6.03152 63.1155 6.03152C61.9405 6.03152 61.0391 5.40589 61.0391 4.34233ZM64.0813 4.34233C64.0813 3.4164 63.7433 2.96595 63.1316 2.96595C62.5199 2.96595 62.1819 3.4164 62.1819 4.34233C62.1819 5.26825 62.5039 5.70619 63.1316 5.70619C63.7594 5.70619 64.0813 5.26825 64.0813 4.34233Z" fill="#440099"/>
<path d="M20.2188 14.6513L20.2992 13.2124H21.2811L21.5387 14.4261C21.9411 14.5638 22.3274 14.6388 22.8425 14.6388C23.9049 14.6388 24.5487 14.2134 24.5487 13.5628C24.5487 12.9747 24.1302 12.6994 23.1966 12.4116L22.6654 12.2364C21.2489 11.7609 20.3636 11.1729 20.3636 10.1218C20.3636 8.94564 21.6031 8.23242 23.4059 8.23242C24.2912 8.23242 25.0799 8.43262 25.6594 8.75795L25.5628 10.1093H24.5809L24.3234 8.95815C24.0175 8.84553 23.7117 8.79549 23.3576 8.79549C22.5045 8.79549 21.8123 9.15835 21.8123 9.809C21.8123 10.3846 22.2791 10.7099 23.1322 10.9727L23.6795 11.1478C25.3536 11.6984 25.9974 12.2489 25.9974 13.2374C25.9974 14.4136 24.7902 15.1894 22.7942 15.1894C21.8767 15.1769 20.8787 14.9767 20.2188 14.6513Z" fill="#440099"/>
<path d="M26.5117 14.6014L27.3648 14.4763C27.3809 13.9883 27.3809 13.3502 27.3809 12.9247V8.64547L26.4473 8.54537V8.15748L28.7491 7.70703L28.9422 7.79462L28.8939 9.19602V10.9853C29.5539 10.3972 30.3104 10.0969 31.0831 10.0969C32.1937 10.0969 32.8376 10.6475 32.8376 11.8862V12.9247C32.8376 13.3752 32.8376 14.0008 32.8537 14.4888L33.6424 14.6139V15.0269H30.4714V14.6139L31.2923 14.4888C31.3084 14.0008 31.3084 13.3877 31.3084 12.9373V11.9863C31.3084 11.2105 31.067 10.9478 30.4231 10.9478C29.9402 10.9478 29.4573 11.1229 28.9422 11.5233V12.9373C28.9422 13.3752 28.9422 14.0008 28.9583 14.5013L29.7149 14.6265V15.0394H26.5438V14.6014H26.5117Z" fill="#440099"/>
<path d="M34.0137 12.6502C34.0137 11.0486 35.5107 10.0977 37.1364 10.0977C38.6495 10.0977 39.6475 10.8985 39.6475 12.0997C39.6475 12.3249 39.6153 12.5001 39.567 12.6502H35.6394C35.7038 13.8014 36.4925 14.3644 37.571 14.3644C38.3276 14.3644 38.8105 14.1017 39.2451 13.7388L39.6153 14.0016C39.1163 14.7398 38.2471 15.1527 37.0559 15.1527C35.2531 15.1527 34.0137 14.2143 34.0137 12.6502ZM35.6555 12.1747H37.4101C38.0217 12.1747 38.1827 11.962 38.1827 11.5992C38.1827 10.986 37.6676 10.5606 37.0398 10.5606C36.4121 10.5606 35.7521 10.986 35.6555 12.1747Z" fill="#440099"/>
<path d="M51.9121 12.6502C51.9121 11.0486 53.4091 10.0977 55.0348 10.0977C56.5479 10.0977 57.5459 10.8985 57.5459 12.0997C57.5459 12.3249 57.5137 12.5001 57.4654 12.6502H53.5379C53.6022 13.8014 54.391 14.3644 55.4694 14.3644C56.226 14.3644 56.7089 14.1017 57.1435 13.7388L57.5137 14.0016C57.0147 14.7398 56.1455 15.1527 54.9383 15.1527C53.1515 15.1527 51.9121 14.2143 51.9121 12.6502ZM53.554 12.1747H55.3085C55.9202 12.1747 56.0811 11.962 56.0811 11.5992C56.0811 10.986 55.566 10.5606 54.9383 10.5606C54.3105 10.5606 53.6666 10.986 53.554 12.1747Z" fill="#440099"/>
<path d="M58.0127 14.6014L58.8819 14.4763C58.898 13.9508 58.9141 13.4378 58.9141 12.9247V8.64547L57.9805 8.54537V8.15748L60.3145 7.70703L60.5076 7.79462L60.4593 9.19602V12.9247C60.4593 13.4378 60.4754 13.9633 60.4915 14.4763L61.3608 14.6014V15.0143H58.0288L58.0127 14.6014Z" fill="#440099"/>
<path d="M66.0936 14.4896C65.6107 14.915 65.0473 15.1528 64.2908 15.1528C62.7777 15.1528 61.6992 14.2018 61.6992 12.6628C61.6992 11.1237 62.9708 10.0852 64.4839 10.0852C65.1439 10.0852 65.6429 10.2604 66.0936 10.6858V8.63375L65.0956 8.53365V8.14576L67.4457 7.69531L67.6389 7.7829L67.5906 9.1843V14.4771L68.4276 14.5897V15.0026L66.1902 15.1152L66.0936 14.4896ZM64.9185 14.4396C65.3692 14.4396 65.7073 14.3019 66.0453 14.0266V11.1613C65.6429 10.886 65.321 10.7859 64.9346 10.7859C64.0815 10.7859 63.3572 11.3615 63.3572 12.6378C63.3572 13.8515 64.001 14.4396 64.9185 14.4396Z" fill="#440099"/>
<path d="M44.7972 2.64007C44.2339 2.62756 43.8153 2.89032 43.5095 3.50344L43.429 2.71515L43.2842 2.65259L41.8516 3.07801V3.32826L42.4632 3.39082C42.4793 3.65359 42.4954 3.82876 42.4954 4.19163V4.54198C42.4954 4.82976 42.4954 5.25519 42.4954 5.59303L41.9481 5.6681V5.93086H44.2339V5.65559L43.5256 5.54298C43.5256 5.21765 43.5256 4.80474 43.5256 4.51695V4.02896C43.6544 3.67861 43.9119 3.35329 44.2178 3.17811C44.2821 3.3658 44.5236 3.50344 44.7972 3.50344C45.1353 3.50344 45.3928 3.31575 45.3928 3.0655C45.3928 2.82776 45.1353 2.64007 44.7972 2.64007Z" fill="#440099"/>
<path d="M50.9463 14.4768C50.9303 13.9763 50.9303 13.3507 50.9303 12.9128V11.599L50.9624 10.0474L50.7693 9.95983L49.3206 10.2351H46.8095C46.8095 10.2351 46.8095 9.50938 46.8095 9.24662C46.8095 8.98386 46.8256 8.44582 47.2924 8.24562C47.2924 8.24562 47.228 8.33321 47.2441 8.50838C47.2763 8.79617 47.5822 9.00888 47.9685 9.00888C48.3548 9.00888 48.6928 8.78366 48.6928 8.47084C48.6928 8.18306 48.387 7.74512 47.5178 7.74512C46.7451 7.74512 45.3125 8.05793 45.3125 10.2101V10.2476H42.6566C42.6566 10.2476 42.6566 9.52189 42.6566 9.25913C42.6566 8.99637 42.6727 8.45833 43.1395 8.25813C43.1395 8.25813 43.0751 8.34572 43.0912 8.52089C43.1234 8.80868 43.4292 9.02139 43.8156 9.02139C44.2019 9.02139 44.5399 8.79617 44.5399 8.48336C44.5399 8.19557 44.2341 7.75763 43.3649 7.75763C42.5922 7.75763 41.1596 8.07044 41.1596 10.2226V10.2476L40.1777 10.3477V10.8732H41.1274V12.9503C41.1274 13.4758 41.1113 13.9889 41.0952 14.5019L40.2421 14.627V15.0399H43.7029V14.627L42.7049 14.4768C42.6888 13.9638 42.6727 13.4508 42.6727 12.9378V10.8607H45.2804V12.9378C45.2804 13.4633 45.2643 13.9763 45.2482 14.4894L44.395 14.6145V15.0274H47.8558V14.6145L46.8578 14.4643C46.8417 13.9513 46.8256 13.4383 46.8256 12.9253V10.8482H49.3206C49.3367 11.2611 49.3528 11.7116 49.3528 12.3122V12.9253C49.3528 13.3507 49.3528 13.9889 49.3367 14.4768L48.4997 14.602V15.0149H51.6868V14.602L50.9463 14.4768Z" fill="#440099"/>
<path d="M57.4497 2.72736V2.99012L58.1097 3.06519L57.1761 5.10473L56.2103 3.05268L56.8863 2.97761V2.71484H54.6328V2.97761L55.0674 3.02766L56.7093 6.13076L56.6932 6.1683C56.5322 6.50614 56.3069 6.81895 56.001 7.04417C55.9527 6.84397 55.7274 6.71885 55.4537 6.71885C55.1318 6.71885 54.8904 6.88151 54.8904 7.13176C54.8904 7.38201 55.1318 7.54467 55.4537 7.54467H55.4698C56.2264 7.54467 56.661 7.0692 57.16 6.04317L58.6248 3.05268L59.1077 2.97761V2.71484L57.4497 2.72736Z" fill="#440099"/>
<path d="M68.1852 2.72709H67.1389C67.1389 2.72709 67.1389 2.21408 67.1389 2.0389C67.1389 1.86373 67.155 1.50087 67.4608 1.36323C67.4608 1.36323 67.4125 1.42579 67.4286 1.5384C67.4447 1.7386 67.654 1.87624 67.9276 1.87624C68.2013 1.87624 68.4105 1.72609 68.4105 1.51338C68.4105 1.32569 68.2174 1.02539 67.6218 1.02539C67.1067 1.02539 66.1248 1.2381 66.1248 2.68955V2.7396L65.4648 2.80217V3.14001H66.1087V4.52889C66.1087 4.87924 66.1087 5.22959 66.0926 5.57994L65.5131 5.66753V5.94281H67.8471V5.66753L67.1711 5.56743C67.1711 5.21708 67.155 4.87924 67.155 4.52889V3.14001H68.1852V2.72709Z" fill="#440099"/>
<path d="M49.6758 1.53895C49.6758 1.25116 49.9655 1.06348 50.3357 1.06348C50.706 1.06348 50.9796 1.25116 50.9796 1.53895C50.9796 1.82674 50.6899 2.01443 50.3357 2.01443C49.9816 2.01443 49.6758 1.81423 49.6758 1.53895Z" fill="#440099"/>
<path d="M31.4863 1.53895C31.4863 1.25116 31.7761 1.06348 32.1463 1.06348C32.5165 1.06348 32.7901 1.25116 32.7901 1.53895C32.7901 1.82674 32.5004 2.01443 32.1463 2.01443C31.7922 2.01443 31.4863 1.81423 31.4863 1.53895Z" fill="#440099"/>
</svg>
