<svg width="16" height="16" viewBox="0 0 16 16" fill="none" xmlns="http://www.w3.org/2000/svg">
<g id="ic:outline-published-with-changes">
<path id="Vector" d="M12.4007 13H14.0007V14.3333H10.0007V10.3333H11.334V12.1533C12.554 11.1733 13.334 9.68 13.334 8C13.334 5.28667 11.294 3.04 8.66732 2.71334V1.36667C12.034 1.7 14.6673 4.54 14.6673 8C14.6673 9.99333 13.7873 11.78 12.4007 13ZM2.66732 8C2.66732 6.32 3.44732 4.82 4.66732 3.84667V5.66667H6.00065V1.66667H2.00065V3H3.60065C2.88839 3.62379 2.31767 4.39261 1.92675 5.25494C1.53583 6.11728 1.33372 7.0532 1.33398 8C1.33398 11.46 3.96732 14.3 7.33398 14.6333V13.2867C4.70732 12.96 2.66732 10.7133 2.66732 8ZM10.8273 5.40667L7.05398 9.18L5.16732 7.29333L4.22732 8.23334L7.05398 11.06L11.7673 6.34667L10.8273 5.40667Z" fill="#777777"/>
</g>
</svg>
